<svg width="84.000000" height="84.000000" viewBox="0 0 84 84" fill="none" xmlns="http://www.w3.org/2000/svg" xmlns:xlink="http://www.w3.org/1999/xlink">
	<desc>
			Created with Pixso.
	</desc>
	<defs/>
	<path id="path" d="M41.99 0C18.8 0 0 19.27 0 43.06C0 62.08 12.03 78.22 28.72 83.92C30.82 84.32 31.58 82.99 31.58 81.84C31.58 80.82 31.55 78.11 31.53 74.52C19.85 77.12 17.38 68.75 17.38 68.75C15.47 63.77 12.72 62.45 12.72 62.45C8.9 59.78 13.01 59.83 13.01 59.83C17.22 60.13 19.44 64.27 19.44 64.27C23.18 70.85 29.27 68.95 31.66 67.85C32.04 65.06 33.13 63.17 34.33 62.09C25 61 15.2 57.31 15.2 40.81C15.2 36.1 16.83 32.26 19.52 29.25C19.09 28.16 17.65 23.79 19.93 17.86C19.93 17.86 23.46 16.7 31.48 22.27C34.83 21.31 38.43 20.84 42 20.82C45.56 20.84 49.16 21.31 52.51 22.27C60.53 16.7 64.05 17.86 64.05 17.86C66.34 23.79 64.9 28.16 64.47 29.25C67.16 32.26 68.79 36.1 68.79 40.81C68.79 57.35 58.96 60.99 49.61 62.06C51.12 63.39 52.46 66.01 52.46 70.03C52.46 75.79 52.41 80.43 52.41 81.84C52.41 83 53.17 84.34 55.3 83.92C71.97 78.21 84 62.08 84 43.06C84 19.27 65.19 0 41.99 0Z" fill="#181513" fill-opacity="1.000000" fill-rule="evenodd"/>
</svg>
